Coordinates
version=1
nRows=27
nColumns=38
inDegrees=no

Units are S.I. units (second, meters, Newtons, ...)
If the header above contains a line with 'inDegrees', this indicates whether rotational values are in degrees (yes) or radians (no).

endheader
time	pelvis_tilt	pelvis_list	pelvis_rotation	pelvis_tx	pelvis_ty	pelvis_tz	hip_flexion_r	hip_adduction_r	hip_rotation_r	knee_angle_r	ankle_angle_r	subtalar_angle_r	mtp_angle_r	hip_flexion_l	hip_adduction_l	hip_rotation_l	knee_angle_l	ankle_angle_l	subtalar_angle_l	mtp_angle_l	lumbar_extension	lumbar_bending	lumbar_rotation	arm_flex_r	arm_add_r	arm_rot_r	elbow_flex_r	pro_sup_r	wrist_flex_r	wrist_dev_r	arm_flex_l	arm_add_l	arm_rot_l	elbow_flex_l	pro_sup_l	wrist_flex_l	wrist_dev_l
1.59	0.336366	1.29567	1.35974	0.579557	-0.132217	0.977703	0.828313	-0.0680204	0.0440577	0.677662	-0.229619	0	0	-0.138256	-0.0867258	-0.153678	0.0115846	-0.290148	0	0	-0.00812532	0.179457	-0.235234	0.823783	-0.600169	0.84047	1.71005	1.5708	0	0	0.304505	-0.330665	0.356383	1.8047	1.5708	0	0
1.6	0.334521	1.29493	1.36563	0.580744	-0.126596	0.975916	0.824103	-0.0679301	0.0423348	0.681486	-0.230618	0	0	-0.141243	-0.0891788	-0.155734	0.0159199	-0.285893	0	0	-0.00529904	0.183042	-0.237528	0.827662	-0.597747	0.84225	1.71357	1.5708	0	0	0.301364	-0.331083	0.348664	1.80897	1.5708	0	0
1.61	0.340239	1.29874	1.36726	0.581568	-0.120586	0.974498	0.822034	-0.0882769	-0.00823825	0.692691	-0.247304	0	0	-0.149019	-0.0932016	-0.156825	0.0206363	-0.280366	0	0	-0.00721792	0.188196	-0.242948	0.83337	-0.595325	0.845371	1.71684	1.5708	0	0	0.29881	-0.331504	0.340527	1.81318	1.5708	0	0
1.62	0.334593	1.29229	1.37208	0.583352	-0.11557	0.972573	0.82591	-0.0695408	0.0374612	0.690716	-0.258412	0	0	-0.143934	-0.0954903	-0.159148	0.0290759	-0.274725	0	0	-0.000148557	0.192544	-0.23988	0.838358	-0.593653	0.848345	1.72046	1.5708	0	0	0.296341	-0.331789	0.333198	1.81644	1.5708	0	0
1.63	0.341176	1.2908	1.3674	0.584833	-0.110196	0.971187	0.829871	-0.0679086	0.0345643	0.698177	-0.271643	0	0	-0.145086	-0.100452	-0.160311	0.0366726	-0.270792	0	0	0.000590145	0.199964	-0.238736	0.844926	-0.592062	0.851614	1.7243	1.5708	0	0	0.294929	-0.33191	0.325667	1.81976	1.5708	0	0
1.64	0.350806	1.28891	1.3587	0.586395	-0.104835	0.969916	0.834951	-0.0637806	0.0313391	0.710294	-0.2827	0	0	-0.1454	-0.106274	-0.16256	0.0459664	-0.266051	0	0	0.000915795	0.208865	-0.237139	0.853195	-0.58981	0.856483	1.7275	1.5708	0	0	0.292694	-0.331605	0.31664	1.82353	1.5708	0	0
1.65	0.370472	1.2929	1.34395	0.58741	-0.0989127	0.96911	0.839957	-0.0849585	-0.0354136	0.736974	-0.298079	0	0	-0.152457	-0.113982	-0.165589	0.0551936	-0.260513	0	0	-0.00463532	0.219862	-0.240659	0.864787	-0.58608	0.864369	1.72911	1.5708	0	0	0.289271	-0.330976	0.304982	1.82817	1.5708	0	0
1.66	0.372257	1.28425	1.33705	0.58973	-0.0941763	0.967579	0.849142	-0.0531905	0.0285766	0.747527	-0.290085	0	0	-0.14404	-0.118799	-0.171282	0.0678805	-0.254616	0	0	0.00149345	0.228513	-0.235891	0.876025	-0.580591	0.873492	1.72901	1.5708	0	0	0.28353	-0.330753	0.291724	1.83294	1.5708	0	0
1.67	0.384223	1.28214	1.32516	0.591422	-0.0887815	0.96654	0.856342	-0.0484205	0.029003	0.768378	-0.287831	0	0	-0.144002	-0.125615	-0.176265	0.0776505	-0.250535	0	0	0.00128455	0.238833	-0.236636	0.888653	-0.574469	0.883831	1.72844	1.5708	0	0	0.277528	-0.330663	0.277509	1.83815	1.5708	0	0
1.68	0.397988	1.28082	1.31239	0.593105	-0.08326	0.965605	0.861197	-0.0446389	0.0275528	0.787062	-0.286723	0	0	-0.145677	-0.133001	-0.180558	0.085431	-0.24777	0	0	0.000261911	0.249286	-0.238358	0.901122	-0.568097	0.894428	1.72788	1.5708	0	0	0.27182	-0.331182	0.263684	1.84322	1.5708	0	0
1.69	0.411109	1.27989	1.30081	0.594865	-0.0775111	0.964702	0.863733	-0.0417445	0.0239714	0.802521	-0.285341	0	0	-0.148863	-0.140341	-0.184152	0.0908725	-0.246938	0	0	-0.000871633	0.258794	-0.239332	0.910385	-0.56247	0.901765	1.72856	1.5708	0	0	0.267229	-0.332313	0.252037	1.84772	1.5708	0	0
1.7	0.422191	1.27932	1.29205	0.596695	-0.0715453	0.963802	0.864451	-0.039985	0.017947	0.815448	-0.28169	0	0	-0.152857	-0.147268	-0.187399	0.0953312	-0.247099	0	0	-0.00124662	0.266849	-0.240897	0.918384	-0.556632	0.90863	1.72869	1.5708	0	0	0.262826	-0.334146	0.241432	1.85161	1.5708	0	0
1.71	0.430876	1.27957	1.28683	0.598488	-0.0654201	0.962986	0.863644	-0.0398814	0.00935666	0.827176	-0.275096	0	0	-0.157945	-0.153343	-0.189009	0.0987722	-0.248504	0	0	-0.00151485	0.273345	-0.242947	0.925036	-0.551051	0.914593	1.72857	1.5708	0	0	0.259352	-0.336676	0.232622	1.85452	1.5708	0	0
1.72	0.436789	1.27986	1.28484	0.600291	-0.0591842	0.96219	0.862652	-0.0404689	0.000482675	0.838609	-0.266373	0	0	-0.163323	-0.158628	-0.188114	0.101157	-0.25123	0	0	-0.000953876	0.278478	-0.245049	0.930313	-0.545678	0.919705	1.72809	1.5708	0	0	0.256257	-0.339294	0.22491	1.85643	1.5708	0	0
1.73	0.440041	1.2799	1.28524	0.602187	-0.0528895	0.961476	0.861745	-0.0405362	-0.00600827	0.849555	-0.256893	0	0	-0.16855	-0.16319	-0.185609	0.102986	-0.254869	0	0	0.000307072	0.282411	-0.246543	0.934325	-0.540389	0.92416	1.7272	1.5708	0	0	0.253309	-0.342068	0.217987	1.8574	1.5708	0	0
1.74	0.441736	1.27953	1.28653	0.604202	-0.0465878	0.960916	0.860814	-0.0393054	-0.00903967	0.859872	-0.247322	0	0	-0.173026	-0.167436	-0.182667	0.105335	-0.259302	0	0	0.0019676	0.285715	-0.246938	0.937249	-0.535246	0.927972	1.7261	1.5708	0	0	0.250733	-0.344941	0.211902	1.8575	1.5708	0	0
1.75	0.442675	1.27892	1.288	0.606289	-0.0403523	0.960584	0.859466	-0.0372269	-0.00964618	0.86859	-0.238388	0	0	-0.176258	-0.171591	-0.17961	0.109546	-0.264302	0	0	0.00348182	0.288782	-0.24633	0.939354	-0.530153	0.93096	1.72489	1.5708	0	0	0.248762	-0.347426	0.206346	1.85674	1.5708	0	0
1.76	0.442724	1.27765	1.289	0.608515	-0.0341145	0.960412	0.858345	-0.0336729	-0.00884716	0.876345	-0.229939	0	0	-0.178202	-0.175621	-0.177423	0.115194	-0.26984	0	0	0.00539138	0.291713	-0.244397	0.940976	-0.525079	0.933876	1.72339	1.5708	0	0	0.246455	-0.349413	0.200553	1.85539	1.5708	0	0
1.77	0.441494	1.27621	1.29043	0.61082	-0.0278764	0.960437	0.857057	-0.0293379	-0.00784446	0.883536	-0.221732	0	0	-0.179095	-0.1792	-0.175652	0.122297	-0.275994	0	0	0.00717028	0.294257	-0.241698	0.942176	-0.519924	0.936818	1.7217	1.5708	0	0	0.243779	-0.351233	0.194628	1.85358	1.5708	0	0
1.78	0.439399	1.27488	1.29241	0.613154	-0.0216126	0.960662	0.855037	-0.0246961	-0.00675965	0.889226	-0.213912	0	0	-0.179174	-0.182496	-0.174362	0.130721	-0.282906	0	0	0.00860469	0.296449	-0.238768	0.942889	-0.5146	0.939794	1.71981	1.5708	0	0	0.240616	-0.352793	0.188436	1.85148	1.5708	0	0
1.79	0.437602	1.27393	1.29424	0.615493	-0.015319	0.961138	0.851696	-0.0198745	-0.00580541	0.893235	-0.205252	0	0	-0.178292	-0.186	-0.174325	0.141687	-0.290834	0	0	0.00936487	0.29846	-0.236103	0.94331	-0.508986	0.942781	1.71756	1.5708	0	0	0.236992	-0.354011	0.181777	1.84914	1.5708	0	0
1.8	0.436606	1.27359	1.2956	0.617837	-0.00902113	0.961895	0.846739	-0.0149701	-0.00460888	0.895785	-0.197451	0	0	-0.176701	-0.18978	-0.175219	0.154739	-0.298264	0	0	0.00916761	0.300332	-0.233492	0.943409	-0.503374	0.945399	1.7151	1.5708	0	0	0.233773	-0.355061	0.175392	1.84627	1.5708	0	0
1.81	0.435938	1.27365	1.29713	0.620155	-0.00273435	0.962913	0.840381	-0.0105317	-0.00339533	0.896596	-0.190428	0	0	-0.173781	-0.193836	-0.177009	0.17051	-0.305868	0	0	0.00840444	0.301901	-0.230791	0.942878	-0.498178	0.947322	1.71257	1.5708	0	0	0.231692	-0.356514	0.170435	1.84245	1.5708	0	0
1.82	0.435892	1.27409	1.2988	0.622384	0.00351384	0.964178	0.832546	-0.00683378	-0.00289424	0.895533	-0.184092	0	0	-0.169647	-0.198081	-0.17841	0.188515	-0.313581	0	0	0.00719877	0.303343	-0.228268	0.9419	-0.49349	0.948822	1.70978	1.5708	0	0	0.2307	-0.358079	0.166715	1.83749	1.5708	0	0
1.83	0.436171	1.27463	1.3007	0.624529	0.00970509	0.965645	0.823774	-0.00338292	-0.00351272	0.893557	-0.178035	0	0	-0.163974	-0.202379	-0.179144	0.208774	-0.321128	0	0	0.00589175	0.304586	-0.225796	0.94042	-0.489253	0.95	1.70656	1.5708	0	0	0.230525	-0.359575	0.164042	1.83134	1.5708	0	0
1.84	0.435542	1.27501	1.30348	0.626642	0.0158641	0.967225	0.814773	-0.000339855	-0.00499732	0.890801	-0.171995	0	0	-0.156728	-0.206446	-0.180366	0.230835	-0.328718	0	0	0.00498332	0.305325	-0.223026	0.938274	-0.485181	0.950793	1.70275	1.5708	0	0	0.230832	-0.360722	0.162185	1.82405	1.5708	0	0
1.85	0.43418	1.27531	1.3069	0.628695	0.0219634	0.968914	0.805626	0.00208822	-0.00713526	0.887213	-0.166359	0	0	-0.14796	-0.210176	-0.181736	0.254963	-0.336177	0	0	0.00441578	0.30586	-0.220165	0.936127	-0.480899	0.951802	1.69802	1.5708	0	0	0.231823	-0.361209	0.161114	1.8158	1.5708	0	0
